<svg width="17" height="7" viewBox="0 0 17 7" fill="none" xmlns="http://www.w3.org/2000/svg">
<path d="M15.8333 6.66667H0.833333C0.333333 6.66667 0 6.33333 0 5.83333C0 5.33333 0.333333 5 0.833333 5H15.8333C16.3333 5 16.6667 5.33333 16.6667 5.83333C16.6667 6.33333 16.3333 6.66667 15.8333 6.66667Z" fill="black"/>
<path d="M15.8333 6.66667C15.5833 6.66667 15.4167 6.58333 15.25 6.41667L10.25 1.41667C9.91667 1.08333 9.91667 0.583333 10.25 0.25C10.5833 -0.0833333 11.0833 -0.0833333 11.4167 0.25L16.4167 5.25C16.75 5.58333 16.75 6.08333 16.4167 6.41667C16.25 6.58333 16.0833 6.66667 15.8333 6.66667Z" fill="black"/>
</svg>
