<svg width="18" height="16" viewBox="0 0 18 16" fill="none" xmlns="http://www.w3.org/2000/svg">
<path d="M16.3333 6.74992H1.33333C0.833333 6.74992 0.5 6.41659 0.5 5.91659C0.5 5.41659 0.833333 5.08325 1.33333 5.08325H16.3333C16.8333 5.08325 17.1667 5.41659 17.1667 5.91659C17.1667 6.41659 16.8333 6.74992 16.3333 6.74992Z" fill="white"/>
<path d="M16.3333 6.74992C16.0833 6.74992 15.9167 6.66659 15.75 6.49992L10.75 1.49992C10.4167 1.16659 10.4167 0.666585 10.75 0.333252C11.0833 -8.13827e-05 11.5833 -8.13827e-05 11.9167 0.333252L16.9167 5.33325C17.25 5.66659 17.25 6.16659 16.9167 6.49992C16.75 6.66659 16.5833 6.74992 16.3333 6.74992Z" fill="white"/>
<path d="M16.6668 10.9167H1.66683C1.16683 10.9167 0.833496 10.5833 0.833496 10.0833C0.833496 9.58333 1.16683 9.25 1.66683 9.25H16.6668C17.1668 9.25 17.5002 9.58333 17.5002 10.0833C17.5002 10.5833 17.1668 10.9167 16.6668 10.9167Z" fill="white"/>
<path d="M6.66683 15.9167C6.41683 15.9167 6.25016 15.8333 6.0835 15.6667L1.0835 10.6667C0.750163 10.3333 0.750163 9.83333 1.0835 9.5C1.41683 9.16667 1.91683 9.16667 2.25016 9.5L7.25016 14.5C7.5835 14.8333 7.5835 15.3333 7.25016 15.6667C7.0835 15.8333 6.91683 15.9167 6.66683 15.9167Z" fill="white"/>
</svg>
