<svg width="35" height="35" viewBox="0 0 35 35" fill="none" xmlns="http://www.w3.org/2000/svg">
<g clip-path="url(#clip0_1315_189)">
<path d="M33.5417 32.0833V13.8542C33.5417 13.5625 33.3681 13.2985 33.0998 13.1833L22.8915 8.80832C22.6654 8.71061 22.4073 8.73394 22.2031 8.86957C21.9975 9.00519 21.875 9.23415 21.875 9.47915V32.0833H20.4167V1.09373C20.4167 0.733527 20.2402 0.396651 19.9442 0.192485C19.6467 -0.0116819 19.2704 -0.0568902 18.9335 0.0714431L3.62104 5.90478C3.19667 6.06665 2.91667 6.47353 2.91667 6.92707V32.0833H1.45833C0.653333 32.0833 0 32.7352 0 33.5417C0 34.3481 0.653333 35 1.45833 35H33.5417C34.3467 35 35 34.3481 35 33.5417C35 32.7352 34.3467 32.0833 33.5417 32.0833ZM29.1667 18.5937C29.1667 17.99 29.6567 17.5 30.2604 17.5C30.8642 17.5 31.3542 17.99 31.3542 18.5937V20.7812C31.3542 21.385 30.8642 21.875 30.2604 21.875C29.6567 21.875 29.1667 21.385 29.1667 20.7812V18.5937ZM29.1667 27.3437C29.1667 26.74 29.6567 26.25 30.2604 26.25C30.8642 26.25 31.3542 26.74 31.3542 27.3437V29.5312C31.3542 30.135 30.8642 30.625 30.2604 30.625C29.6567 30.625 29.1667 30.135 29.1667 29.5312V27.3437ZM24.0625 18.5937C24.0625 17.99 24.5525 17.5 25.1562 17.5C25.76 17.5 26.25 17.99 26.25 18.5937V20.7812C26.25 21.385 25.76 21.875 25.1562 21.875C24.5525 21.875 24.0625 21.385 24.0625 20.7812V18.5937ZM24.0625 27.3437C24.0625 26.74 24.5525 26.25 25.1562 26.25C25.76 26.25 26.25 26.74 26.25 27.3437V29.5312C26.25 30.135 25.76 30.625 25.1562 30.625C24.5525 30.625 24.0625 30.135 24.0625 29.5312V27.3437ZM13.8542 9.84374C13.8542 9.23999 14.3442 8.74999 14.9479 8.74999C15.5517 8.74999 16.0417 9.23999 16.0417 9.84374V12.0312C16.0417 12.635 15.5517 13.125 14.9479 13.125C14.3442 13.125 13.8542 12.635 13.8542 12.0312V9.84374ZM13.8542 18.5937C13.8542 17.99 14.3442 17.5 14.9479 17.5C15.5517 17.5 16.0417 17.99 16.0417 18.5937V20.7812C16.0417 21.385 15.5517 21.875 14.9479 21.875C14.3442 21.875 13.8542 21.385 13.8542 20.7812V18.5937ZM13.8542 27.3437C13.8542 26.74 14.3442 26.25 14.9479 26.25C15.5517 26.25 16.0417 26.74 16.0417 27.3437V29.5312C16.0417 30.135 15.5517 30.625 14.9479 30.625C14.3442 30.625 13.8542 30.135 13.8542 29.5312V27.3437ZM7.29167 9.84374C7.29167 9.23999 7.78167 8.74999 8.38542 8.74999C8.98917 8.74999 9.47917 9.23999 9.47917 9.84374V12.0312C9.47917 12.635 8.98917 13.125 8.38542 13.125C7.78167 13.125 7.29167 12.635 7.29167 12.0312V9.84374ZM7.29167 18.5937C7.29167 17.99 7.78167 17.5 8.38542 17.5C8.98917 17.5 9.47917 17.99 9.47917 18.5937V20.7812C9.47917 21.385 8.98917 21.875 8.38542 21.875C7.78167 21.875 7.29167 21.385 7.29167 20.7812V18.5937ZM7.29167 27.3437C7.29167 26.74 7.78167 26.25 8.38542 26.25C8.98917 26.25 9.47917 26.74 9.47917 27.3437V29.5312C9.47917 30.135 8.98917 30.625 8.38542 30.625C7.78167 30.625 7.29167 30.135 7.29167 29.5312V27.3437Z" fill="#FFB400"/>
</g>
<defs>
<clipPath id="clip0_1315_189">
<rect width="35" height="35" fill="white"/>
</clipPath>
</defs>
</svg>
