<svg width="19" height="19" viewBox="0 0 19 19" fill="none" xmlns="http://www.w3.org/2000/svg">
<path d="M17.4624 1.53748C17.2182 1.29012 16.9273 1.09372 16.6067 0.95967C16.286 0.82562 15.9418 0.756592 15.5943 0.756592C15.2467 0.756592 14.9026 0.82562 14.5819 0.95967C14.2612 1.09372 13.9703 1.29012 13.7261 1.53748L12.0461 3.24373L15.7561 6.95373L17.4361 5.27373C17.6852 5.0313 17.8837 4.7418 18.02 4.42206C18.1563 4.10231 18.2277 3.75868 18.2302 3.4111C18.2326 3.06351 18.166 2.71891 18.0342 2.39728C17.9024 2.07565 17.708 1.7834 17.4624 1.53748Z" fill="#8C52FF"/>
<path d="M10.8037 4.48633L3.46244 11.8276C3.39663 11.8952 3.34066 11.9718 3.29619 12.0551L0.863691 16.9638C0.793122 17.0963 0.757829 17.2448 0.761208 17.3948C0.764587 17.5449 0.806522 17.6916 0.882982 17.8208C0.959442 17.95 1.06785 18.0573 1.19779 18.1325C1.32773 18.2077 1.47483 18.2482 1.62494 18.2501C1.75826 18.2506 1.88995 18.2207 2.00994 18.1626L6.91869 15.7301C7.00195 15.6856 7.07853 15.6296 7.14619 15.5638L14.4874 8.22258L10.8037 4.48633Z" fill="#8C52FF"/>
<path d="M17.375 18.25H9.5C9.26794 18.25 9.04538 18.1578 8.88128 17.9937C8.71719 17.8296 8.625 17.6071 8.625 17.375C8.625 17.1429 8.71719 16.9204 8.88128 16.7563C9.04538 16.5922 9.26794 16.5 9.5 16.5H17.375C17.6071 16.5 17.8296 16.5922 17.9937 16.7563C18.1578 16.9204 18.25 17.1429 18.25 17.375C18.25 17.6071 18.1578 17.8296 17.9937 17.9937C17.8296 18.1578 17.6071 18.25 17.375 18.25Z" fill="#8C52FF"/>
</svg>
