<svg width="24" height="24" viewBox="0 0 24 24" fill="none" xmlns="http://www.w3.org/2000/svg">
<path fill-rule="evenodd" clip-rule="evenodd" d="M21.9332 23.6768H2.06681C1.86997 23.6768 1.70126 23.5221 1.70126 23.3112V20.6398C-0.562365 19.7822 -0.562365 16.5625 1.70126 15.7049V13.0195C1.70126 12.8226 1.86997 12.668 2.06681 12.668H21.9332C22.1301 12.668 22.2847 12.8226 22.2847 13.0195V15.6908C24.5484 16.5625 24.5484 19.7822 22.2847 20.6398V23.3112C22.2847 23.5221 22.1301 23.6768 21.9332 23.6768ZM2.24959 18.8964C2.348 18.8964 2.43236 18.8261 2.43236 18.7277V17.617C2.43236 17.378 2.08087 17.378 2.08087 17.617V18.7277C2.08087 18.8261 2.15117 18.8964 2.24959 18.8964ZM21.7505 18.8964C21.8489 18.8964 21.9192 18.8261 21.9192 18.7277V17.617C21.9192 17.378 21.5677 17.378 21.5677 17.617V18.7277C21.5677 18.8261 21.652 18.8964 21.7505 18.8964ZM18.3902 19.0652C19.5712 19.0652 19.5712 17.2796 18.3902 17.2796C17.2232 17.2796 17.2232 19.0652 18.3902 19.0652ZM18.3902 17.6311C19.1072 17.6311 19.1072 18.7137 18.3902 18.7137C17.6872 18.7137 17.6872 17.6311 18.3902 17.6311ZM5.60987 19.0652C6.77683 19.0652 6.77683 17.2796 5.60987 17.2796C4.42885 17.2796 4.42885 19.0652 5.60987 19.0652ZM5.60987 17.6311C6.31285 17.6311 6.31285 18.7137 5.60987 18.7137C4.89282 18.7137 4.89282 17.6311 5.60987 17.6311ZM20.471 22.0318C20.5694 22.0318 20.6397 21.9474 20.6397 21.863V14.4817C20.6397 14.3833 20.5694 14.313 20.471 14.313H3.52902C3.43061 14.313 3.36031 14.3833 3.36031 14.4817V21.849C3.36031 21.9474 3.43061 22.0318 3.52902 22.0318H20.471ZM3.7118 21.6803V14.6645H20.2882V21.6803H3.7118Z" fill="#8C52FF"/>
<path fill-rule="evenodd" clip-rule="evenodd" d="M2.06676 13.385C1.75745 13.385 1.58873 13.0194 1.79963 12.7804L9.95428 3.83843C10.2777 3.47287 10.8119 3.96497 10.4886 4.31646L2.3339 13.2725C2.2636 13.3428 2.16518 13.385 2.06676 13.385Z" fill="#8C52FF"/>
<path fill-rule="evenodd" clip-rule="evenodd" d="M21.9333 13.3848C21.8348 13.3848 21.7364 13.3426 21.6521 13.2723L13.4974 4.31627C13.3709 4.17567 13.3709 3.95071 13.5255 3.81012C13.6802 3.66952 13.9051 3.68358 14.0457 3.83824L22.2004 12.7802C22.4113 13.0193 22.2426 13.3848 21.9333 13.3848Z" fill="#8C52FF"/>
<path fill-rule="evenodd" clip-rule="evenodd" d="M11.993 5.37084C10.6011 5.37084 9.47632 4.232 9.47632 2.84008C9.47632 1.44817 10.6011 0.309326 11.993 0.309326C13.3849 0.309326 14.5238 1.44817 14.5238 2.84008C14.5238 4.232 13.3849 5.37084 11.993 5.37084Z" fill="#8C52FF"/>
</svg>
