<svg width="30" height="30" viewBox="0 0 30 30" fill="none" xmlns="http://www.w3.org/2000/svg">
<path d="M21.064 16.5299C20.7702 16.5057 20.4788 16.599 20.2538 16.7894C20.0287 16.9798 19.8883 17.2516 19.8634 17.5453C19.765 18.7066 19.6431 19.7168 19.5364 20.2477V20.2541C19.2218 21.8772 17.6843 23.4814 16.1075 23.8342C15.971 23.8623 15.8339 23.8893 15.6974 23.915C15.8146 22.4074 15.9019 20.4797 15.8902 18.9932C15.9077 16.7221 15.6904 13.2252 15.4976 11.8336C15.1513 9.27129 13.5757 6.42949 11.8325 5.22188L11.822 5.21485C10.61 4.39606 9.31106 3.71397 7.94895 3.18106C7.70598 3.08692 7.46594 2.99903 7.22883 2.91738C8.52187 2.71747 9.82863 2.61951 11.137 2.62442C12.9183 2.62442 14.5443 2.78672 16.1075 3.11133C17.6843 3.46289 19.2218 5.06836 19.5364 6.69141V6.69785C19.6425 7.2252 19.7644 8.23535 19.8628 9.39317C19.8878 9.68742 20.0287 9.95968 20.2545 10.1501C20.4802 10.3404 20.7724 10.4333 21.0666 10.4083C21.3609 10.3833 21.6331 10.2424 21.8235 10.0166C22.0139 9.79088 22.1068 9.49874 22.0818 9.20449C21.9751 7.95117 21.8439 6.87949 21.7208 6.26309C21.2351 3.76641 19.0255 1.47598 16.581 0.934572L16.5669 0.931643C14.8489 0.575392 13.0736 0.400783 11.1329 0.397268C9.19231 0.393752 7.42395 0.573049 5.70598 0.932228L5.69133 0.935158C4.60031 1.17715 3.55676 1.76778 2.69192 2.56875C2.45818 2.745 2.25388 2.9572 2.08664 3.19746C1.32258 4.08926 0.767697 5.15625 0.552072 6.26309C0.281954 7.61719 -0.023319 11.1287 0.0001185 13.4725C-0.0127721 14.7299 0.0686732 16.3236 0.189376 17.7398C0.253829 18.6481 0.327072 19.4391 0.397384 19.9465C0.743673 22.5088 2.31926 25.3506 4.06301 26.5582L4.07297 26.5652C5.28526 27.3839 6.58437 28.066 7.9466 28.599C9.3259 29.1346 10.5915 29.4592 11.8167 29.5916H11.8273C13.4738 29.7387 14.9702 28.3096 15.4232 26.2201C15.8064 26.1592 16.1863 26.0898 16.5628 26.0121L16.5769 26.0092C19.022 25.4678 21.231 23.1773 21.7167 20.6807C21.8398 20.0631 21.9716 18.9891 22.0782 17.7328C22.1031 17.4388 22.0102 17.147 21.82 16.9215C21.6299 16.6959 21.3579 16.5551 21.064 16.5299Z" fill="white"/>
<path d="M30.0054 13.4707C30.0054 13.4338 30.0054 13.3969 29.9995 13.36C29.9998 13.3576 29.9998 13.3553 29.9995 13.3529C29.996 13.3183 29.9907 13.2839 29.9837 13.2498V13.2422C29.9397 13.0306 29.8348 12.8365 29.6819 12.6838L25.6976 8.69591C25.4888 8.48705 25.2056 8.36968 24.9103 8.36963C24.615 8.36957 24.3317 8.48683 24.1229 8.69561C23.914 8.9044 23.7966 9.18759 23.7966 9.48291C23.7965 9.77822 23.9138 10.0615 24.1226 10.2703L26.2126 12.3598H18.5269C18.2316 12.3598 17.9484 12.4771 17.7396 12.6858C17.5309 12.8946 17.4136 13.1778 17.4136 13.4731C17.4136 13.7683 17.5309 14.0515 17.7396 14.2603C17.9484 14.469 18.2316 14.5863 18.5269 14.5863H26.2026L24.1144 16.6746C23.9063 16.8835 23.7896 17.1665 23.7899 17.4613C23.7902 17.7562 23.9075 18.0389 24.116 18.2474C24.3245 18.4559 24.6072 18.5732 24.902 18.5735C25.1969 18.5738 25.4798 18.4571 25.6888 18.249L29.655 14.2828C29.7988 14.1481 29.904 13.9774 29.9597 13.7883C29.9697 13.7546 29.9779 13.7204 29.9843 13.6858C29.9846 13.6809 29.9846 13.676 29.9843 13.6711C29.9895 13.6412 29.9948 13.6125 29.9978 13.5809C30.0007 13.5492 29.9978 13.5352 29.9978 13.5129C29.9978 13.5 29.9978 13.4871 29.9978 13.4742L30.0054 13.4707Z" fill="white"/>
</svg>
