<svg width="27" height="31" viewBox="0 0 27 31" fill="none" xmlns="http://www.w3.org/2000/svg">
<path d="M20.7917 24.2501H26.625L20.7917 30.0834V24.2501ZM26.625 2.37508V21.3334H17.875V30.0834H1.83333C1.44656 30.0834 1.07563 29.9298 0.802136 29.6563C0.528645 29.3828 0.375 29.0119 0.375 28.6251V2.37508C0.375 1.98831 0.528645 1.61737 0.802136 1.34388C1.07563 1.07039 1.44656 0.916748 1.83333 0.916748H25.1667C25.5534 0.916748 25.9244 1.07039 26.1979 1.34388C26.4714 1.61737 26.625 1.98831 26.625 2.37508ZM14.9583 18.4167C14.9583 18.03 14.8047 17.659 14.5312 17.3856C14.2577 17.1121 13.8868 16.9584 13.5 16.9584H7.66667C7.27989 16.9584 6.90896 17.1121 6.63547 17.3856C6.36198 17.659 6.20833 18.03 6.20833 18.4167C6.20833 18.8035 6.36198 19.1745 6.63547 19.4479C6.90896 19.7214 7.27989 19.8751 7.66667 19.8751H13.5C13.8868 19.8751 14.2577 19.7214 14.5312 19.4479C14.8047 19.1745 14.9583 18.8035 14.9583 18.4167ZM20.7917 11.1251C20.7917 10.7383 20.638 10.3674 20.3645 10.0939C20.091 9.82039 19.7201 9.66675 19.3333 9.66675H7.66667C7.27989 9.66675 6.90896 9.82039 6.63547 10.0939C6.36198 10.3674 6.20833 10.7383 6.20833 11.1251C6.20833 11.5119 6.36198 11.8828 6.63547 12.1563C6.90896 12.4298 7.27989 12.5834 7.66667 12.5834H19.3333C19.7201 12.5834 20.091 12.4298 20.3645 12.1563C20.638 11.8828 20.7917 11.5119 20.7917 11.1251Z" fill="#FF6F73"/>
</svg>
