<svg width="32" height="32" viewBox="0 0 32 32" fill="none" xmlns="http://www.w3.org/2000/svg">
<path d="M22.7308 0H9.26621C7.97853 0 6.93829 1.04428 6.93829 2.33196V29.6711C6.93829 30.9547 7.97853 32 9.26621 32H22.7308C24.0164 32 25.0607 30.9557 25.0607 29.6711V2.33196C25.0597 1.04428 24.0164 0 22.7308 0ZM23.3145 25.9272H8.68448V3.93372H23.3145V25.9272ZM19.1202 2.36629H12.8778V1.68559H19.1212L19.1202 2.36629ZM21.7915 2.05523C21.7915 2.38447 21.5229 2.6511 21.1946 2.6511C20.8654 2.6511 20.5978 2.38346 20.5978 2.05523C20.5978 1.727 20.8654 1.45937 21.1946 1.45937C21.5239 1.45836 21.7915 1.72599 21.7915 2.05523ZM18.8405 29.5155H13.1555V27.7663H18.8405V29.5155Z" fill="#8C52FF"/>
</svg>
