<svg width="32" height="24" viewBox="0 0 32 24" fill="none" xmlns="http://www.w3.org/2000/svg">
<path d="M30.8041 4.43648L30.4893 2.6511C30.235 1.21258 28.6955 0.281449 27.0496 0.571479L5.63586 4.34761H29.8924C30.2053 4.34761 30.51 4.37914 30.8041 4.43648Z" fill="#8C52FF"/>
<path d="M29.8924 6.57764H2.10795C0.945635 6.57764 0 7.3415 0 8.28005V21.7786C0 22.7172 0.945635 23.481 2.10795 23.481H29.8924C31.0544 23.481 32 22.7172 32 21.7786V8.28005C31.9998 7.34116 31.0544 6.57764 29.8924 6.57764ZM9.91045 21.7474H7.68025V19.828H9.91045V21.7474ZM9.91045 17.9084H7.68025V15.989H9.91045V17.9084ZM9.91045 14.0695H7.68025V12.1499H9.91045V14.0695ZM9.91045 10.2305H7.68025V8.31091H9.91045V10.2305ZM26.2969 12.5413L14.6286 14.6167L26.1269 19.3117L26.5143 18.4C26.8535 16.6222 25.238 18.0376 25.1429 17.9428L22.6118 15.9886L18.7429 17.4857L19.6571 19.3142L20.29 20.2671C20.2183 20.3387 20.1853 14.357 20.1143 14.2857L16.9774 17.2138C16.9058 17.1422 19.0628 17.557 19.1344 17.4857L18.7429 17.0285L19.1344 16.7447L21.2267 14.6167L20.5714 13.3714C20.4763 13.277 23.0496 13.4665 23.144 13.3714L17.9332 11.1175L22.6118 19.7273L24.6808 10.9249C25.1533 10.4524 21.1999 15.9684 21.6461 16.4147C22.0916 16.8607 26.7685 12.069 26.2969 12.5413Z" fill="#8C52FF"/>
</svg>
