<svg width="35" height="27" viewBox="0 0 35 27" fill="none" xmlns="http://www.w3.org/2000/svg">
<path d="M33.692 5.22737L33.3477 3.27461C33.0696 1.70123 31.3857 0.682804 29.5855 1.00003L6.16425 5.13017H32.6948C33.0371 5.13017 33.3704 5.16466 33.692 5.22737Z" fill="#8C52FF"/>
<path d="M32.6948 7.56934H2.30557C1.03429 7.56934 0 8.40481 0 9.43135V24.1954C0 25.222 1.03429 26.0574 2.30557 26.0574H32.6948C33.9657 26.0574 35 25.222 35 24.1954V9.43135C34.9998 8.40444 33.9657 7.56934 32.6948 7.56934ZM10.8396 24.1613H8.40027V22.0619H10.8396V24.1613ZM10.8396 19.9624H8.40027V17.863H10.8396V19.9624ZM10.8396 15.7636H8.40027V13.664H10.8396V15.7636ZM10.8396 11.5647H8.40027V9.4651H10.8396V11.5647ZM28.7622 14.0921L16 16.3621L28.5763 21.4972L29 20.5C29.371 18.5556 27.604 20.1037 27.5 20L24.7316 17.8626L20.5 19.5L21.5 21.5L22.1922 22.5422C22.1138 22.6206 22.0776 16.078 22 16L18.5691 19.2027C18.4907 19.1243 20.8499 19.578 20.9283 19.5L20.5 19L20.9283 18.6896L23.2167 16.3621L22.5 15C22.396 14.8967 25.2105 15.104 25.3138 15L19.6144 12.5348L24.7316 21.9518L26.9946 12.3241C27.5114 11.8074 23.1874 17.8405 23.6754 18.3287C24.1627 18.8165 29.278 13.5755 28.7622 14.0921Z" fill="#8C52FF"/>
</svg>
