<svg width="33" height="37" viewBox="0 0 33 37" fill="none" xmlns="http://www.w3.org/2000/svg">
<path d="M25.4583 29.2499H32.625L25.4583 36.4166V29.2499ZM32.625 2.37492V25.6666H21.875V36.4166H2.16667C1.69149 36.4166 1.23577 36.2278 0.899767 35.8918C0.563764 35.5558 0.375 35.1001 0.375 34.6249V2.37492C0.375 1.89974 0.563764 1.44402 0.899767 1.10802C1.23577 0.772016 1.69149 0.583252 2.16667 0.583252H30.8333C31.3085 0.583252 31.7642 0.772016 32.1002 1.10802C32.4362 1.44402 32.625 1.89974 32.625 2.37492ZM18.2917 22.0833C18.2917 21.6081 18.1029 21.1524 17.7669 20.8164C17.4309 20.4804 16.9752 20.2916 16.5 20.2916H9.33333C8.85815 20.2916 8.40244 20.4804 8.06643 20.8164C7.73043 21.1524 7.54167 21.6081 7.54167 22.0833C7.54167 22.5584 7.73043 23.0141 8.06643 23.3502C8.40244 23.6862 8.85815 23.8749 9.33333 23.8749H16.5C16.9752 23.8749 17.4309 23.6862 17.7669 23.3502C18.1029 23.0141 18.2917 22.5584 18.2917 22.0833ZM25.4583 13.1249C25.4583 12.6497 25.2696 12.194 24.9336 11.858C24.5976 11.522 24.1418 11.3333 23.6667 11.3333H9.33333C8.85815 11.3333 8.40244 11.522 8.06643 11.858C7.73043 12.194 7.54167 12.6497 7.54167 13.1249C7.54167 13.6001 7.73043 14.0558 8.06643 14.3918C8.40244 14.7278 8.85815 14.9166 9.33333 14.9166H23.6667C24.1418 14.9166 24.5976 14.7278 24.9336 14.3918C25.2696 14.0558 25.4583 13.6001 25.4583 13.1249Z" fill="#A2A9A2"/>
</svg>
